<mxfile host="app.diagrams.net" modified="2022-11-04T20:58:10.585Z" agent="5.0 (Macintosh; Intel Mac OS X 10_15_7) AppleWebKit/537.36 (KHTML, like Gecko) Chrome/107.0.0.0 Safari/537.36" etag="dpJwIuFx3rdb5A-xk2Co" version="20.5.1" type="github">
  <diagram id="O059o2RbelGLcB2xG4wM" name="Page-1">
    <mxGraphModel dx="1298" dy="684" grid="1" gridSize="10" guides="1" tooltips="1" connect="1" arrows="1" fold="1" page="1" pageScale="1" pageWidth="827" pageHeight="1169" math="0" shadow="0">
      <root>
        <mxCell id="0" />
        <mxCell id="1" parent="0" />
        <mxCell id="He_Dx3fvKOiLOjP05rNN-5" value="" style="edgeStyle=orthogonalEdgeStyle;rounded=0;orthogonalLoop=1;jettySize=auto;html=1;" parent="1" source="He_Dx3fvKOiLOjP05rNN-1" target="He_Dx3fvKOiLOjP05rNN-4" edge="1">
          <mxGeometry relative="1" as="geometry" />
        </mxCell>
        <mxCell id="He_Dx3fvKOiLOjP05rNN-6" style="edgeStyle=orthogonalEdgeStyle;rounded=0;orthogonalLoop=1;jettySize=auto;html=1;entryX=0.5;entryY=0;entryDx=0;entryDy=0;" parent="1" source="He_Dx3fvKOiLOjP05rNN-1" target="He_Dx3fvKOiLOjP05rNN-2" edge="1">
          <mxGeometry relative="1" as="geometry">
            <Array as="points">
              <mxPoint x="380" y="220" />
              <mxPoint x="190" y="220" />
            </Array>
          </mxGeometry>
        </mxCell>
        <mxCell id="He_Dx3fvKOiLOjP05rNN-8" style="edgeStyle=orthogonalEdgeStyle;rounded=0;orthogonalLoop=1;jettySize=auto;html=1;entryX=0.5;entryY=0;entryDx=0;entryDy=0;" parent="1" source="He_Dx3fvKOiLOjP05rNN-1" target="He_Dx3fvKOiLOjP05rNN-3" edge="1">
          <mxGeometry relative="1" as="geometry">
            <Array as="points">
              <mxPoint x="420" y="220" />
              <mxPoint x="620" y="220" />
            </Array>
          </mxGeometry>
        </mxCell>
        <mxCell id="He_Dx3fvKOiLOjP05rNN-1" value="Main Process" style="rounded=1;whiteSpace=wrap;html=1;" parent="1" vertex="1">
          <mxGeometry x="340" y="90" width="120" height="60" as="geometry" />
        </mxCell>
        <mxCell id="He_Dx3fvKOiLOjP05rNN-2" value="Process 1&lt;br&gt;CPU + Memory" style="rounded=1;whiteSpace=wrap;html=1;" parent="1" vertex="1">
          <mxGeometry x="130" y="260" width="120" height="60" as="geometry" />
        </mxCell>
        <mxCell id="He_Dx3fvKOiLOjP05rNN-3" value="Process 2&lt;br&gt;CPU + Memory" style="rounded=1;whiteSpace=wrap;html=1;" parent="1" vertex="1">
          <mxGeometry x="560" y="260" width="120" height="60" as="geometry" />
        </mxCell>
        <mxCell id="He_Dx3fvKOiLOjP05rNN-4" value="Process 2&lt;br&gt;CPU + Memory" style="rounded=1;whiteSpace=wrap;html=1;" parent="1" vertex="1">
          <mxGeometry x="340" y="260" width="120" height="60" as="geometry" />
        </mxCell>
      </root>
    </mxGraphModel>
  </diagram>
</mxfile>
